<?xml version="1.0" encoding="UTF-8"?>
<svg id="OBJECTS" xmlns="http://www.w3.org/2000/svg" viewBox="0 0 500 500">
  <defs>
    <style>
      .cls-1 {
        fill: #424243;
      }

      .cls-1, .cls-2 {
        stroke-width: 0px;
      }

      .cls-2 {
        fill: #c9a200;
      }
    </style>
  </defs>
  <path class="cls-2" d="M250,123.23s2.5-.08,6.82.23v-3.56c0-3.75-3.07-6.82-6.82-6.82s-6.82,3.07-6.82,6.82v3.56c4.33-.31,6.82-.23,6.82-.23Z"/>
  <path class="cls-2" d="M383.33,235.25v-.84c-26.36-96.48-103.14-109.31-126.5-110.96-4.33-.31-6.82-.23-6.82-.23,0,0-2.5-.08-6.82.23-23.36,1.65-100.14,14.48-126.5,110.96v.84s266.65-.84,266.65,0ZM176.26,224.72l-30.9.09s12.68-69.73,78.92-91.15c0,0-43.1,27.93-48.02,91.07Z"/>
  <path class="cls-2" d="M364.51,249.08c.04.27.93,5.96.66,14.87h37.51v-14.87h-38.17Z"/>
  <path class="cls-2" d="M135.49,249.08h-38.17v14.87h37.51c-.27-8.91.62-14.6.66-14.87Z"/>
  <path class="cls-1" d="M134.83,263.95c.67,23.6,9.46,69.52,63.6,95.15l51.56-.12,51.56.12c54.14-25.63,62.94-71.55,63.6-95.15h-230.33ZM154.1,272.43l19.92.07c1.24,52.9,32.39,78.11,32.39,78.11-55.25-25.52-52.31-78.19-52.31-78.19Z"/>
  <path class="cls-1" d="M301.56,371.11h-103.13s-12.62,2.24-12.98,15.82h129.08c-.36-13.58-12.98-15.82-12.98-15.82Z"/>
</svg>