<?xml version="1.0" encoding="UTF-8"?>
<svg id="Layer_1" data-name="Layer 1" xmlns="http://www.w3.org/2000/svg" viewBox="0 0 612 792">
  <defs>
    <style>
      .cls-1 {
        fill: #272429;
        stroke-width: 0px;
      }
    </style>
  </defs>
  <path class="cls-1" d="M542.95,458.09c0-37.75-25.95-45.68-68-44.06,4.24-3.27,8.29-6.74,12.06-10.47,15.31-15.13,25.97-36.17,22.06-57.86-1.45-8.04-6.25-15.17-13.58-18.93-18.34-9.42-34.47,6.97-51.46,10.66-3.21.7-6.58,1.11-9.78.38-3.2-.74-6.25-2.8-7.41-5.84-1.22-3.17-.27-6.86-1.53-10.02-2.11-5.29-9.36-6.57-14.88-4.97-5.52,1.6-10.31,5.15-15.86,6.68-9.89,2.72-23.09-6.87-31.26-11.49-7.87-4.45-16.15-8.85-25.19-9.46-10.72-.71-21.47,4.69-27.73,13.24-2.03,2.76-6.06,2.76-8.09,0-6.27-8.55-17.02-13.95-27.73-13.24-9.04.6-17.33,5-25.19,9.46-8.17,4.62-21.37,14.21-31.26,11.49-5.54-1.52-10.34-5.08-15.86-6.68-5.52-1.6-12.77-.32-14.88,4.97-1.26,3.16-.32,6.85-1.53,10.02-1.17,3.04-4.21,5.1-7.41,5.84-3.2.74-6.57.32-9.78-.38-17.25-3.75-33.61-20.58-52.3-10.21-9.46,5.25-13.56,16.87-13.56,27.6,0,18.24,10.47,38.93,21.62,53.13,1.72,2.19,3.56,4.29,5.46,6.33-37.4-.19-60.14,8.97-60.14,43.81,0,5.24,19.29,7.88,51.55,9.2-1.52,1.97-2.87,4.07-3.99,6.32-6.65,13.39-3.92,31.45,8.03,40.55,3.67,2.79,7.96,4.67,11.7,7.37,3.73,2.7,7.03,6.59,7.25,11.16.22,4.57-3.91,9.37-8.45,8.49-2.45-.47-5.64-1.82-5.16-4.87.18-1.13,1.25-2.17,2.39-1.97.99.18,1.62,1.14,2.5,1.6,1.52.79,3.55-.18,4.26-1.73.71-1.55.34-3.4-.5-4.88-1.96-3.43-6.54-5.15-10.31-3.87-5.53,1.88-7.04,8.11-5.5,13.19,2.15,7.14,10.44,9.69,17.32,7.79,4.88-1.35,9.03-5.48,9.75-10.44.35-2.47.1-4.7-.57-6.77-2.69-8.26-10.97-12.98-15.75-19.88-4.96-7.16-1.82-18.47,4.52-23.86,4.51-3.83,10.55-5.46,16.47-5.95,5.92-.49,11.88.04,17.83-.04,3.69-.05,7.56-.4,10.65-2.41,2.94-1.91,4.63-5.13,5.17-8.59,34.32.15,74.03-.04,116.5-.04s83.51.2,118.43.04c.54,3.46,2.23,6.68,5.17,8.59,3.08,2.01,6.96,2.36,10.65,2.41,5.94.08,11.9-.45,17.83.04,5.92.49,11.97,2.12,16.47,5.95,6.34,5.39,9.48,16.7,4.52,23.86-4.78,6.9-13.05,11.63-15.75,19.88-.67,2.07-.93,4.3-.57,6.77.71,4.96,4.87,9.08,9.75,10.44,6.88,1.91,15.17-.64,17.32-7.79,1.53-5.08.03-11.31-5.5-13.19-3.77-1.28-8.35.44-10.31,3.87-.84,1.48-1.21,3.34-.5,4.88.71,1.55,2.74,2.52,4.26,1.73.89-.46,1.52-1.42,2.5-1.6,1.14-.2,2.21.84,2.39,1.97.48,3.05-2.71,4.39-5.16,4.87-4.54.88-8.67-3.92-8.45-8.49.22-4.57,3.51-8.46,7.25-11.16,3.73-2.7,8.03-4.58,11.7-7.37,11.95-9.1,14.68-27.16,8.03-40.55-1.12-2.26-2.48-4.37-4.01-6.35,32.22-1.33,51.57-3.97,51.57-9.17ZM131.27,482.38c-4.99,6.34-7.52,14.01-7.68,22.04-4.99-7.09-6.48-16.48-3.93-24.74.95-3.09,2.52-6.12,5.12-8.07.23-.17.48-.3.71-.46h19.29c-5.24,2.75-9.99,6.77-13.5,11.23ZM489.88,504.42c-.16-8.03-2.69-15.7-7.68-22.04-3.51-4.46-8.27-8.48-13.5-11.23h19.29c.24.15.49.28.71.46,2.6,1.96,4.17,4.99,5.12,8.07,2.54,8.26,1.05,17.65-3.93,24.74ZM493.77,333.74c5.56,8.62,8.65,19.99,7.54,30.15-1.11,10.16-5.5,18.72-12.79,25.96,5.63-15.06,2.54-32.08-7.99-44.3,4.41-3.94,8.82-7.88,13.23-11.82ZM407.62,320.65c1.38-.47,2.8-.83,4.26-.99,4-.42,8.67,1.17,11.16,4.29-3.57,4.29-6.88,8.81-9.89,13.5-2.79-3.38-7.33-5.29-11.75-5.29-1.75,0-3.47.28-5.18.68,3.8-4.06,7.59-8.13,11.39-12.19ZM200.24,319.66c1.46.15,2.88.51,4.26.99,3.8,4.06,7.59,8.13,11.39,12.19-1.7-.39-3.42-.68-5.18-.68-4.41,0-8.96,1.91-11.75,5.29-3.01-4.7-6.31-9.21-9.89-13.5,2.5-3.12,7.16-4.7,11.16-4.29ZM120.89,389.86c-7.29-7.25-11.68-15.8-12.79-25.96-1.11-10.16,1.98-21.54,7.54-30.15,4.41,3.94,8.82,7.88,13.23,11.82-10.53,12.22-13.62,29.24-7.99,44.3ZM128.88,369.03c0-9.3,3.55-19.38,11.75-23.93,16.2-8.99,30.39,5.61,45.35,8.86,2.79.61,5.7.96,8.48.33,2.78-.64,5.42-2.43,6.43-5.06,1.06-2.75.24-5.95,1.33-8.69,1.83-4.59,8.12-5.69,12.9-4.31,4.79,1.39,8.94,4.47,13.75,5.79,8.58,2.36,20.02-5.96,27.1-9.96,6.82-3.86,14-7.68,21.84-8.2,9.11-.6,18.24,3.89,23.72,11.05,1.9,2.49,5.76,2.49,7.66,0,5.47-7.16,14.61-11.65,23.72-11.05,7.84.52,15.02,4.34,21.85,8.2,7.08,4.01,18.53,12.32,27.1,9.96,4.81-1.32,8.96-4.4,13.75-5.79,4.79-1.39,11.07-.28,12.9,4.31,1.09,2.74.27,5.94,1.33,8.69,1.01,2.64,3.65,4.43,6.43,5.06,2.78.64,5.69.28,8.48-.33,15.02-3.26,29.27-17.97,45.56-8.74,5.84,3.31,9.63,9.26,10.82,15.81,3.44,18.84-5.81,37.13-19.11,50.27-1.32,1.31-2.7,2.56-4.09,3.8-3.64.3-7.37.63-11.18,1.01,4.51-3.3,8.63-6.78,12.34-10.45,14.25-14.09,20.8-31.09,17.96-46.64-1.04-5.66-4.25-10.39-8.8-12.97-2.92-1.65-5.87-2.46-9.02-2.46-5.97,0-11.98,2.83-18.34,5.82-4.88,2.3-9.93,4.67-15.23,5.83-4.2.92-7.36.99-10.31.32-3.96-.91-6.77-3.09-8.36-6.49-.46-.99-.67-2.36-.9-3.81-.42-2.7-.89-5.75-3.28-7.34-3.5-2.33-8.01.02-11.01,1.57l-1.06.54c-2.42,1.2-4.92,2.44-7.75,3.22-1.36.38-2.82.57-4.33.57-7.78,0-15.89-4.89-22.45-8.85-1.25-.76-2.43-1.47-3.51-2.07-6.68-3.78-13.24-7.21-20.06-7.67-7.55-.49-15.37,3.21-20.12,9.42-1.7,2.22-4.31,3.5-7.15,3.5s-5.45-1.27-7.15-3.5c-4.75-6.22-12.6-9.91-20.13-9.42-6.82.45-13.38,3.88-20.06,7.67-1.04.59-2.18,1.28-3.55,2.1-6.51,3.93-14.62,8.82-22.4,8.82-1.51,0-2.97-.19-4.33-.57-2.84-.78-5.34-2.02-7.75-3.21-.54-.27-1.11-.58-1.69-.91-3.25-1.8-7.69-4.26-11.26-.65-1.89,1.92-2.09,4.54-2.26,6.85-.13,1.73-.26,3.37-1.01,4.58-1.7,2.76-4.76,4.82-8.39,5.65-2.95.68-6.1.6-10.31-.32-5.29-1.15-10.35-3.53-15.24-5.83-6.36-2.99-12.38-5.82-18.34-5.82-3.09,0-5.98.77-8.85,2.36-7.1,3.94-9.63,13.1-9.63,20.35,0,15.33,9.23,32.55,17.87,43.55,1.54,1.96,3.23,3.84,4.98,5.69-2.85-.23-5.64-.43-8.38-.6-9.62-12.31-18.62-30.15-18.62-45.9ZM160.07,415.88c-2.52-2.47-4.87-5.04-6.98-7.72-8.36-10.64-17.29-27.23-17.29-41.87,0-6.48,2.16-14.6,8.22-17.96,2.44-1.35,4.89-2.01,7.49-2.01,5.34,0,11.07,2.7,17.15,5.56,5.03,2.36,10.23,4.81,15.83,6.03,4.63,1.01,8.17,1.08,11.53.31,4.35-1,8.04-3.51,10.12-6.89,1.1-1.78,1.25-3.83,1.4-5.8.15-2.02.3-3.93,1.49-5.14,1.93-1.97,4.39-.83,7.92,1.12.63.35,1.23.68,1.81.97,2.54,1.26,5.16,2.55,8.25,3.41,1.6.44,3.31.66,5.08.66,8.56,0,17.03-5.11,24-9.32,1.19-.72,2.3-1.39,3.33-1.97,6.39-3.62,12.64-6.9,18.87-7.31,6.63-.45,13.53,2.85,17.73,8.34,2.23,2.91,5.64,4.58,9.35,4.58s7.13-1.67,9.35-4.58c4.21-5.5,11.08-8.78,17.73-8.34,6.23.41,12.48,3.69,18.87,7.31,1.05.6,2.21,1.29,3.49,2.06,6.81,4.11,15.28,9.22,23.84,9.22,1.76,0,3.47-.22,5.07-.66,3.09-.85,5.72-2.15,8.25-3.41l1.11-.57c2.55-1.32,6.05-3.14,8.17-1.72,1.38.92,1.74,3.24,2.09,5.49.24,1.58.49,3.21,1.12,4.54,1.94,4.15,5.48,6.92,10.24,8.01,3.37.77,6.91.7,11.53-.31,5.61-1.22,10.81-3.66,15.83-6.03,6.08-2.86,11.81-5.55,17.15-5.55,2.66,0,5.15.69,7.64,2.09,3.85,2.18,6.56,6.22,7.46,11.09,2.67,14.65-3.59,30.77-17.2,44.21-4.67,4.62-10.02,8.93-15.99,12.95-38.25,3.95-84.71,10.63-134.81,10.63-55.22,0-106.01-7.93-146.27-11.41ZM105.57,439.2c5.27-12.11,18.27-16.98,42.35-16.98,16.57,0,36.48,2.29,59.54,4.95,29.56,3.41,63.07,7.27,98.88,7.27s69.67-4,99.37-7.52c23.09-2.74,43.02-5.11,59.57-5.11,23.94,0,36.79,4.98,41.94,17.39H105.57Z"/>
  <path class="cls-1" d="M332.3,346.83c.34,1.07-.15,2.64-.59,3.64-.53,1.21-1.32,2.3-2.11,3.37.95-.78,1.92-1.57,3.02-2.12,3.86-1.94,7.14,1.05,7.98,4.74-.12-2.26-.47-4.55.17-6.13.8-1.96,3.24-2.94,5.38-2.9-1.91-.03-4.12-1.35-5.21-2.91-1.08-1.56-.99-5.69-.32-7.46-2.91,3.23-7.31,5.53-11.7,5.4-.99-.03-1.98-.06-2.96-.09,1.28.5,2.56,1.01,3.72,1.74.95.6,2.26,1.6,2.62,2.72ZM333.59,342.73c1.24-.94,3.06-1.3,4.43-.43,1.47.94,1.99,3.08,1.11,4.57-.88,1.49-3.03,2.1-4.57,1.29-.83-.43-1.42-1.24-1.66-2.13-.31-1.12-.31-2.53.7-3.3Z"/>
  <path class="cls-1" d="M162.71,376.64c1.07-.34,2.22-.44,3.26-.87-.97.22-2.02.13-2.91-.29-.9-.42-1.64-1.18-1.98-2.11-.32-.88-.28-1.86-.04-2.76.23-.91.65-1.76,1.06-2.6-.79.78-1.6,1.56-2.53,2.17-.94.6-2.04,1.02-3.15.97-.88-.03-1.78-.39-2.39-1.03-.72-.76-1.52-1.44-2.23-2.22.67,1.77.76,5.9-.32,7.46-1.08,1.56-3.29,2.88-5.21,2.91,2.14-.04,4.58.94,5.38,2.9.64,1.58.29,3.87.17,6.13.83-3.69,4.11-6.69,7.98-4.74,1.1.55,2.07,1.34,3.02,2.12-.8-.65-1.46-2.05-1.91-2.96-.48-.94-1.02-1.94-.67-3.02.34-1.06,1.42-1.72,2.49-2.06ZM159.52,376.86c-.25.89-.83,1.7-1.66,2.13-1.55.81-3.69.21-4.57-1.29-.88-1.49-.37-3.64,1.11-4.57,1.37-.87,3.19-.51,4.43.43,1.01.76,1.01,2.17.7,3.3Z"/>
  <path class="cls-1" d="M314.01,408.38c-1.54-1.46-2.57-3.87-1.73-5.81.68-1.57,2.56-2.94,4.27-4.46-3.23,2.03-7.69,1.85-9.03-2.22-.38-1.16-.5-2.39-.62-3.61-.21,1.31-.43,2.62-.92,3.85-.4,1-1.18,2.46-2.19,2.98-1.05.54-2.7.33-3.8.1-1.34-.29-2.61-.83-3.88-1.37.72.67,1.44,1.34,2.16,2.01,3.2,2.97,4.66,7.68,4.41,11.99.8-1.72,3.68-4.7,5.56-5.05,1.88-.35,4.39.27,5.76,1.58ZM302.74,404.23c-.88-1.49-.37-3.64,1.11-4.57,1.37-.87,3.19-.51,4.43.43,1.01.76,1.01,2.17.7,3.3-.25.89-.83,1.7-1.66,2.13-1.55.81-3.69.21-4.57-1.29Z"/>
  <path class="cls-1" d="M232.42,382.66c.35-1.17.95-2.26,1.55-3.33-.92.96-1.85,1.93-2.96,2.67-.91.61-2.38,1.38-3.51,1.25-1.18-.14-2.42-1.23-3.19-2.03-.95-.99-1.69-2.14-2.42-3.29.41,1.86,1.22,4.1-.01,5.81-.85,1.18-2.44,1.8-3.87,1.51,1.52.26,3.24.76,3.9,2.14.46.96.25,2.13-.27,3.06-.52.93-1.33,1.67-2.12,2.4.4-.37,1.42-.53,1.94-.68.69-.21,1.42-.44,2.13-.53.93-.11,2.38.08,3.23.45,1.75.76,3.47,2.66,3.86,4.52-.44-2.07.08-4.63,1.88-5.76,1.45-.92,3.79-1.01,6.06-1.31-3.83-.12-7.41-2.75-6.2-6.87ZM230.66,388.59c-.25.89-.83,1.7-1.66,2.13-1.55.81-3.69.21-4.57-1.29-.88-1.49-.37-3.64,1.11-4.57,1.37-.87,3.19-.51,4.43.43,1.01.76,1.01,2.17.7,3.3Z"/>
  <path class="cls-1" d="M373.06,392.85c.46.96.25,2.13-.27,3.06-.52.93-1.33,1.67-2.12,2.4.4-.37,1.42-.53,1.94-.68.69-.21,1.42-.44,2.13-.53.93-.11,2.38.08,3.23.45,1.75.76,3.47,2.66,3.86,4.52-.44-2.07.08-4.63,1.88-5.76,1.45-.92,3.79-1.01,6.06-1.31-3.83-.12-7.41-2.75-6.2-6.87.35-1.17.95-2.26,1.55-3.33-.92.96-1.85,1.93-2.96,2.67-.91.61-2.38,1.38-3.51,1.25-1.18-.14-2.42-1.23-3.19-2.03-.95-.99-1.69-2.14-2.42-3.29.42,1.86,1.22,4.1-.01,5.81-.85,1.18-2.44,1.8-3.87,1.51,1.52.26,3.24.76,3.9,2.14ZM376.69,390.32c1.37-.87,3.19-.51,4.43.43,1.01.76,1.01,2.17.7,3.3-.25.89-.83,1.7-1.66,2.13-1.55.81-3.69.21-4.57-1.29-.88-1.49-.37-3.64,1.11-4.57Z"/>
  <path class="cls-1" d="M445.53,376.12c.46.96.25,2.13-.27,3.06-.52.93-1.33,1.67-2.12,2.4.4-.37,1.42-.53,1.94-.68.69-.21,1.42-.44,2.13-.53.93-.11,2.38.08,3.23.45,1.75.76,3.47,2.66,3.86,4.52-.44-2.07.08-4.63,1.88-5.76,1.45-.92,3.79-1.01,6.06-1.31-3.83-.12-7.41-2.75-6.2-6.87.35-1.17.95-2.26,1.55-3.33-.92.96-1.85,1.93-2.96,2.67-.91.61-2.38,1.38-3.51,1.25-1.18-.14-2.42-1.23-3.19-2.03-.95-.99-1.69-2.14-2.42-3.29.41,1.86,1.22,4.1-.01,5.81-.85,1.18-2.44,1.8-3.87,1.51,1.52.26,3.24.75,3.9,2.14ZM449.16,373.59c1.37-.87,3.19-.51,4.43.43,1.01.76,1.01,2.17.7,3.3-.25.89-.83,1.69-1.66,2.13-1.55.81-3.69.21-4.57-1.29-.88-1.49-.37-3.64,1.11-4.57Z"/>
  <path class="cls-1" d="M280.82,344.08c-1.44.55-3.17,1-4.45.15-.9-.59-1.33-1.7-1.36-2.76-.04-1.06.27-2.11.57-3.13-.15.52-.95,1.17-1.31,1.57-.48.53-.98,1.1-1.55,1.54-.74.57-2.09,1.14-3,1.26-1.9.24-4.36-.52-5.66-1.91,1.45,1.55,2.34,4.01,1.39,5.9-.77,1.53-2.73,2.79-4.52,4.21,3.34-1.84,7.79-1.41,8.89,2.73.31,1.18.36,2.42.41,3.64.29-1.29.58-2.6,1.14-3.79.46-.98,1.32-2.39,2.36-2.85,1.08-.48,2.71-.18,3.79.12,1.32.36,2.56.98,3.79,1.59-1.32-1.38-3.18-2.9-3.02-4.99.12-1.45,1.15-2.78,2.54-3.26ZM274.57,348.24c-.72,1.44-2.47,2.06-4.02,1.89-1.26-.14-2-1.35-2.32-2.47-.25-.89-.17-1.88.32-2.67.91-1.48,3.06-2.05,4.59-1.22,1.54.83,2.21,2.93,1.43,4.48Z"/>
</svg>