<?xml version="1.0" encoding="UTF-8"?>
<svg xmlns="http://www.w3.org/2000/svg" xmlns:xlink="http://www.w3.org/1999/xlink" viewBox="0 0 612 792">
  <defs>
    <style>
      .cls-1 {
        opacity: .25;
      }

      .cls-1, .cls-2, .cls-3, .cls-4, .cls-5, .cls-6, .cls-7, .cls-8, .cls-9, .cls-10, .cls-11, .cls-12, .cls-13, .cls-14, .cls-15 {
        stroke-width: 0px;
      }

      .cls-1, .cls-2, .cls-3, .cls-9, .cls-12, .cls-14, .cls-15 {
        mix-blend-mode: multiply;
      }

      .cls-1, .cls-6, .cls-14 {
        fill: #d6d2b9;
      }

      .cls-2 {
        fill: #eef7f4;
      }

      .cls-3 {
        fill: #58595b;
        opacity: .43;
      }

      .cls-16 {
        isolation: isolate;
      }

      .cls-4 {
        fill: #d9d5be;
      }

      .cls-5 {
        fill: #252246;
      }

      .cls-17 {
        filter: url(#drop-shadow-1);
      }

      .cls-7 {
        fill: #fff;
      }

      .cls-8, .cls-12 {
        fill: #110f3a;
      }

      .cls-9 {
        fill: #f3faf7;
      }

      .cls-10 {
        fill: #edebd4;
      }

      .cls-18 {
        filter: url(#drop-shadow-2);
      }

      .cls-11 {
        fill: #e5e2d3;
      }

      .cls-12 {
        opacity: .28;
      }

      .cls-13 {
        fill: #030028;
      }

      .cls-15 {
        fill: #dedbc7;
      }
    </style>
    <filter id="drop-shadow-1" filterUnits="userSpaceOnUse">
      <feOffset dx="5" dy="5"/>
      <feGaussianBlur result="blur" stdDeviation="3"/>
      <feFlood flood-color="#231f20" flood-opacity=".1"/>
      <feComposite in2="blur" operator="in"/>
      <feComposite in="SourceGraphic"/>
    </filter>
    <filter id="drop-shadow-2" filterUnits="userSpaceOnUse">
      <feOffset dx="5" dy="5"/>
      <feGaussianBlur result="blur-2" stdDeviation="3"/>
      <feFlood flood-color="#231f20" flood-opacity=".1"/>
      <feComposite in2="blur-2" operator="in"/>
      <feComposite in="SourceGraphic"/>
    </filter>
  </defs>
  <g class="cls-16">
    <g id="Layer_1" data-name="Layer 1">
      <g>
        <g class="cls-17">
          <g>
            <path class="cls-6" d="M233.78,177.88c-4.07-5.07-9.02-9.46-14.62-12.77-5.77-3.41-12.09-4.16-18.2-6.66-6.35-2.6-11.48-6.02-10.79-13.41,0,0,.63-7.88.63-8.54,0-3.44-6.46-6.23-14.43-6.23s-14.43,2.79-14.43,6.23c0,.66.9,6.3,1,8.03.4,6.82-2.48,9.66-8.56,12.73-4.15,2.09-8.72,2.64-13.15,3.85-8.67,2.38-16.79,9.93-22.28,16.77-2.12,2.64-2.06,6.33,1.06,8.25,20.62,12.62,36.61,31.96,44.92,54.69,2.68,7.33,20.21,7.28,22.87,0,8.3-22.73,24.3-42.07,44.92-54.69,3.13-1.91,3.18-5.61,1.06-8.25Z"/>
            <path class="cls-1" d="M194.76,201.98c-4.11-3.59-9.71-4.71-14.3-7.48-8.63-5.21-7.96-14.44-6.29-23.27,1.13-5.99,2.61-11.58,2.21-17.73-.51-7.75-2.15-15.38-3.48-23.03-6.29.67-10.96,3.12-10.96,6.04,0,.66.9,6.3,1,8.03.4,6.82-2.48,9.66-8.56,12.73-4.15,2.09-8.72,2.64-13.15,3.85-8.67,2.38-16.79,9.93-22.28,16.77-2.12,2.64-2.06,6.33,1.06,8.25,20.62,12.62,36.61,31.96,44.92,54.69,2.68,7.33,20.21,7.28,22.87,0,3.54-9.68,8.48-18.74,14.57-26.93-2.16-4.26-4.05-8.8-7.61-11.9Z"/>
            <path class="cls-10" d="M177.13,140.86c4.59-.01,9.37-.88,13.57-2.68.06-.86.1-1.51.1-1.68,0-3.44-6.46-6.23-14.43-6.23s-14.43,2.79-14.43,6.23c0,.2.09.88.21,1.77,4.87,2.01,9.79,2.61,14.98,2.59Z"/>
            <path class="cls-14" d="M190.77,136.23c-.32-3.32-6.64-5.96-14.4-5.96s-14.41,2.78-14.43,6.22c8.99,3.31,19.88,3.38,28.82-.25Z"/>
          </g>
          <g>
            <path class="cls-7" d="M330.58,649.41c-28.64-27.33-29.82-74.81-36.73-111.23-8.83-46.52-19.38-92.72-31.48-138.5-7.26-27.44-15.08-54.73-23.43-81.86-2.35-7.61-4.57-15.31-7.26-22.83-2.56-7.15-6.56-13.71-11.73-19.28-.03-.03-.05-.06-.08-.08-4.98-5.37-8.35-12.21-10.03-19.32-4.41-18.66,6.89-34.36,10.72-51.84.7-3.21,1.4-6.42,2.17-9.61-2.18-4.04-7.6-6.4-11.81-7.13-5.66-.98-11.98-.94-17.25,1.55-2.83,1.61-5.42,3.6-7.55,5.92-3.36,3.65-9.14,12.38-9,17.77-.15-5.78-4.3-10.73-7.41-15.66-4.07-6.44-11.4-10.41-18.98-10.63-3.5-.1-19.66,3.52-18.43,9.47.89,4.33,1.55,8.13,1.71,8.91,1.21,5.84,1.24,7.85,2.65,13.64,1.37,5.63,6.55,13.01,7.77,18.68,1.46,6.79.19,15.87-1.37,22.69-1.31,5.71-4.03,10.98-7.25,15.83-.46.69-.93,1.38-1.41,2.06-7.81,11.1-14.01,23.25-17.98,36.24-1.26,4.14-2.54,8.26-3.93,12.34-31.1,91.37-44.04,186.88-66.68,280.35-5.81,23.96-12.46,48.11-27.27,68.26-8.51,11.59,25.93,18.11,31.45,19.66,16.32,4.59,32.87,8.33,49.57,11.23,50.83,8.81,104.29,10.28,155.47,3.39,17.04-2.3,33.74-6.53,50.28-11.17,8.52-2.39,17.01-4.92,25.52-7.36,5.84-1.68,18.4-2.73,21.48-8.67,5.92-11.41-15.03-26.43-21.73-32.83Z"/>
            <path class="cls-9" d="M330.58,649.41c-28.64-27.33-29.82-74.81-36.73-111.23-1.11-5.84-2.24-11.67-3.4-17.49-1.07,10.2-1.94,20.42-2.36,30.68-1.03,25.06.22,51.05,9.25,74.72,4.59,12.03,11.26,22.2,19.96,31.61,2.87,3.11,6.3,6.96,6.09,11.49-.19,4.1-3.36,7.2-6.93,8.76-8.4,3.67-17.75,3.85-26.69,5.01-9.87,1.28-19.67,2.05-29.56.54-7.22-1.1-13.7.22-20.85.18-16.14-.09-35.75-54.67-35.75-54.67,0,0,5.55,48.06-5.26,52.94-7.76,3.52-17.9,1.32-26.06.93-10.28-.49-17.76.85-26.57-5.22-9.84-6.77-21.17-11.35-32.94-13.32-9.92-1.66-17.14-3.21-18.84-14.4-3.26-21.47-.55-100.13-2.55-97.45,0,0-25.22,74.19-38.97,90.19-14.63,17.03-34.87,35.77-35.1,35.14-1.95,9.92,27.62,15.56,32.7,16.98,16.32,4.59,32.87,8.33,49.57,11.23,50.83,8.81,104.29,10.28,155.47,3.39,17.04-2.3,33.74-6.53,50.28-11.17,8.52-2.39,17.01-4.92,25.52-7.36,5.84-1.68,18.4-2.73,21.48-8.67,5.92-11.41-15.03-26.43-21.73-32.83Z"/>
            <path class="cls-2" d="M134.01,205.07c1.21,5.84,1.24,7.85,2.65,13.64,1.37,5.63,6.55,13.01,7.77,18.68,1.46,6.79.19,15.87-1.37,22.69-1.31,5.71-4.03,10.98-7.25,15.83-.46.69-.93,1.38-1.41,2.06-3.37,4.79-6.42,9.78-9.14,14.94,6.8,15.57,13.73,31.1,21.57,46.19,15.64,30.11,35.46,59.95,63.66,79.66,19.72,13.78,42.02,22.91,64.51,31.29-4-16.84-8.21-33.63-12.64-50.36-7.26-27.44-15.08-54.73-23.43-81.86-2.35-7.61-4.57-15.31-7.26-22.83-2.56-7.15-6.56-13.71-11.73-19.28-.03-.03-.05-.06-.08-.08-4.98-5.37-8.35-12.21-10.03-19.32-4.41-18.66,6.89-34.36,10.72-51.84.7-3.21,1.4-6.42,2.17-9.61-2.18-4.04-7.6-6.4-11.81-7.13-5.66-.98-11.98-.94-17.25,1.55-2.83,1.61-5.42,3.6-7.55,5.92-3.36,3.65-9.14,12.38-9,17.77-.15-5.78-4.3-10.73-7.41-15.66-4.07-6.44-11.4-10.41-18.98-10.63-3.5-.1-19.66,3.52-18.43,9.47.89,4.33,1.55,8.13,1.71,8.91Z"/>
            <path class="cls-9" d="M74.88,472.78c41.9-15.87,82.07-39.13,112.21-72.76,16.22-18.1,27.58-39.64,35.54-62.5,3.73-10.7,7.01-21.64,9.26-32.75.39-1.92.77-3.89,1.11-5.88-.44-1.3-.87-2.6-1.33-3.9-2.56-7.15-6.56-13.71-11.73-19.28-.03-.03-.05-.06-.08-.08-4.98-5.37-8.35-12.21-10.03-19.32-4.41-18.66,6.89-34.36,10.72-51.84.7-3.21,1.4-6.42,2.17-9.61-2.18-4.04-7.6-6.4-11.81-7.13-5.66-.98-11.98-.94-17.25,1.55-2.83,1.61-5.42,3.6-7.55,5.92-3.36,3.65-9.14,12.38-9,17.77-.15-5.78-4.3-10.73-7.41-15.66-4.07-6.44-11.4-10.41-18.98-10.63-3.5-.1-19.66,3.52-18.43,9.47.89,4.33,1.55,8.13,1.71,8.91,1.21,5.84,1.24,7.85,2.65,13.64,1.37,5.63,6.55,13.01,7.77,18.68,1.46,6.79.19,15.87-1.37,22.69-1.31,5.71-4.03,10.98-7.25,15.83-.46.69-.93,1.38-1.41,2.06-7.81,11.1-14.01,23.25-17.98,36.24-1.26,4.14-2.54,8.26-3.93,12.34-16.32,47.95-27.63,97.03-37.98,146.36.12-.05.25-.09.37-.14Z"/>
            <path class="cls-7" d="M134.01,205.07c1.21,5.84,1.24,7.85,2.65,13.64,1.37,5.63,6.55,13.01,7.77,18.68.53,2.48.7,5.27.62,8.14,21.33.76,42.71.96,63.91-1,1.03-13.78,8.61-26.37,11.6-40.06.7-3.21,1.4-6.42,2.17-9.61-2.18-4.04-7.6-6.4-11.81-7.13-5.66-.98-11.98-.94-17.25,1.55-2.83,1.61-5.42,3.6-7.55,5.92-3.36,3.65-9.14,12.38-9,17.77-.15-5.78-4.3-10.73-7.41-15.66-4.07-6.44-11.4-10.41-18.98-10.63-3.5-.1-19.66,3.52-18.43,9.47.89,4.33,1.55,8.13,1.71,8.91Z"/>
            <path class="cls-7" d="M182.96,260.7c9.12-.32,18.48-.5,27.34-2.74-.15-.55-.31-1.1-.44-1.66-.72-3.03-1.01-5.98-1-8.88-21.21,1.93-42.6,1.74-63.95.99-.32,4.07-1.04,8.16-1.84,11.66-.03.11-.06.22-.09.33,13.29,1.85,26.62.75,39.98.29Z"/>
          </g>
        </g>
        <g>
          <g>
            <g class="cls-18">
              <g>
                <path class="cls-8" d="M481.52,335.61v-12.95h-53.01v12.95h-25.25v375.45h48.95v-294.2c0-2.3,1.87-4.17,4.17-4.17h0c1.76,0,3.19,1.43,3.19,3.19v295.18h48.95v-375.45h-26.99Z"/>
                <path class="cls-3" d="M449.92,482.11c.76-.67,1.52-1.33,2.29-2v-63.24c0-2.3,1.87-4.17,4.17-4.17,1.76,0,3.19,1.43,3.19,3.19v58.01c18.91-15.71,39.48-31.67,48.95-54.21v-84.06h-26.99v-12.95h-53.01v12.95h-25.25v201.06c13.09-20.21,28.8-38.82,46.65-54.57Z"/>
              </g>
              <g>
                <path class="cls-6" d="M525.07,177.28c-4.82-6-10.69-11.21-17.33-15.13-6.83-4.04-14.32-4.93-21.56-7.9-7.53-3.08-13.61-7.13-12.79-15.89,0,0,.75-9.33.75-10.12,0-4.08-7.65-7.38-17.09-7.38s-17.09,3.3-17.09,7.38c0,.78,1.07,7.47,1.19,9.51.48,8.08-2.94,11.45-10.14,15.08-4.91,2.48-10.33,3.13-15.58,4.57-10.27,2.82-19.89,11.77-26.4,19.87-2.51,3.13-2.44,7.5,1.26,9.77,24.43,14.95,43.38,37.87,53.22,64.8,3.17,8.68,23.94,8.62,27.09,0,9.84-26.93,28.79-49.85,53.22-64.8,3.7-2.27,3.77-6.65,1.26-9.77Z"/>
                <path class="cls-1" d="M478.84,205.85c-4.87-4.25-11.5-5.58-16.94-8.87-10.23-6.18-9.44-17.11-7.46-27.58,1.34-7.1,3.1-13.72,2.62-21.01-.6-9.18-2.55-18.22-4.12-27.29-7.45.8-12.98,3.69-12.98,7.16,0,.78,1.07,7.47,1.19,9.51.48,8.08-2.94,11.45-10.14,15.08-4.91,2.48-10.33,3.13-15.58,4.57-10.27,2.82-19.89,11.77-26.4,19.87-2.51,3.13-2.44,7.5,1.26,9.77,24.43,14.95,43.38,37.87,53.22,64.8,3.17,8.68,23.94,8.62,27.09,0,4.19-11.47,10.05-22.2,17.26-31.91-2.55-5.05-4.8-10.42-9.02-14.1Z"/>
                <path class="cls-10" d="M457.95,133.42c5.44-.02,11.1-1.04,16.07-3.17.07-1.02.12-1.79.12-1.99,0-4.08-7.65-7.38-17.09-7.38s-17.09,3.3-17.09,7.38c0,.24.1,1.04.25,2.1,5.77,2.38,11.6,3.09,17.75,3.07Z"/>
                <path class="cls-14" d="M474.11,127.94c-.38-3.93-7.86-7.07-17.06-7.07s-17.08,3.3-17.09,7.37c10.66,3.92,23.55,4,34.15-.3Z"/>
              </g>
              <g>
                <path class="cls-11" d="M457.05,158.54v178.24l-14.08,27.85c-.62,1.22-2.13,1.68-3.33,1.01l-39.71-22.38,7.41-181.25h20.14l9.26-18.98,20.31,15.51Z"/>
                <path class="cls-8" d="M457.05,336.77l-14.08,27.85c-.62,1.22-2.13,1.68-3.33,1.01l-39.71-22.38,7.41-181.25,49.71,109.49v65.28Z"/>
                <path class="cls-5" d="M440.82,364.55c-.17,0-.34-.04-.5-.13l-38.97-21.96,7.13-174.56,47.17,103.9v64.64l-13.93,27.55c-.17.34-.52.56-.91.56Z"/>
                <path class="cls-7" d="M355.72,386.54v6.02s8.1-5.32,21.06-3.01l.69-3.01-8.33-21.3-13.43,21.3Z"/>
                <path class="cls-8" d="M425.16,153.21l-19.44,6.48-18.52,4.17s-4.63-1.39-5.09,2.78c-.46,4.17-27.78,87.5-28.7,113.42-.93,25.93,1.85,101.39,2.31,106.48,0,0,8.33-9.26,21.76,0,0,0,5.09-84.72,7.41-100.46,2.31-15.74,8.33-25,8.33-25l.93,30.15-17.59,113.37s11.57,21.76,29.17,0c17.59-21.76,36.11-105.55,36.11-105.55l-16.67-145.83Z"/>
                <path class="cls-12" d="M387.72,377.08c3.12-8.76,3.05-18.07,4.38-27.19,1.31-9,3.67-17.17,7.46-25.43,4.45-9.71,9.11-18.42,8.47-29.41-.55-9.37-3.4-18.45-5.45-27.56-3.24-14.39-2.77-28.89-2.67-43.44-.94,5.54-1.71,11.12-2.88,16.63-1.3,6.14-3.8,20.4-3.8,20.4l.93,30.15-17.59,113.37s1.47,2.74,4.14,5.31c-.49-11.17,3.54-23.03,7.03-32.82Z"/>
                <path class="cls-13" d="M436.74,143.03l-11.57,10.18-10.18,14.81,10.88,5.56-16.9-4.17s12.04,92.59,32.87,129.63c0,0-6.48-111.11-6.48-128.24s1.39-27.78,1.39-27.78Z"/>
                <path class="cls-7" d="M440.21,138.05l-3.47,4.98s-2.26,16.9,4.34,25.58c0,0,5.38-9.72,15.97-10.07,0,0-9.37-6.25-12.33-11.11-2.95-4.86-4.51-9.37-4.51-9.37Z"/>
              </g>
              <g>
                <path class="cls-11" d="M506.76,162.35h-20.14l-9.26-18.98-20.31,15.51v.2c-.35,0-.69.22-.69.67v82.81c0,.45.35.67.69.67v93.89l14.08,27.85c.62,1.22,2.13,1.68,3.33,1.01l39.71-22.38-7.41-181.25Z"/>
                <path class="cls-8" d="M457.05,337.12l14.08,27.85c.62,1.22,2.13,1.68,3.33,1.01l39.71-22.38-7.41-181.25-49.71,109.49v65.28Z"/>
                <path class="cls-5" d="M473.28,364.9c.17,0,.34-.04.5-.13l38.97-21.96-7.13-174.56-47.17,103.9v64.64l13.93,27.55c.17.34.52.56.91.56Z"/>
                <path class="cls-7" d="M558.38,386.89v6.02s-8.1-5.32-21.06-3.01l-.69-3.01,8.33-21.3,13.43,21.3Z"/>
                <path class="cls-8" d="M488.93,153.56l19.44,6.48,18.52,4.17s4.63-1.39,5.09,2.78c.46,4.17,27.78,87.5,28.7,113.42s-1.85,101.39-2.31,106.48c0,0-8.33-9.26-21.76,0,0,0-5.09-84.72-7.41-100.46-2.31-15.74-8.33-25-8.33-25l-.93,30.15,17.59,113.37s-11.57,21.76-29.17,0c-17.59-21.76-36.11-105.55-36.11-105.55l16.67-145.83Z"/>
                <path class="cls-12" d="M509.35,304.77c-2.29,8.48,3.28,18.6,5.44,26.73,4.28,16.18,6.71,32.37,12.6,48.15,3.04,8.14,6.46,16.13,9.97,24.08l-17.4-112.16.93-30.15s.22.33.58.98c.02-.11.05-.21.08-.31-1.45-2.73-1.84-5.77-2.69-8.91-1.05-3.86-2.94-7.36-4.83-10.88.21,6.53,1.58,13.01,1.79,19.56.23,7.43.08,15.02-.83,22.41-.91,7.31-3.73,13.5-5.62,20.5Z"/>
                <path class="cls-13" d="M477.36,143.37l11.57,10.19,10.18,14.81-10.88,5.56,16.9-4.17s-12.04,92.59-32.87,129.63c0,0,6.48-111.11,6.48-128.24s-1.39-27.78-1.39-27.78Z"/>
                <path class="cls-7" d="M473.89,138.4l3.47,4.98s2.26,16.9-4.34,25.58c0,0-5.38-9.72-15.97-10.07,0,0,9.37-6.25,12.33-11.11,2.95-4.86,4.51-9.37,4.51-9.37Z"/>
              </g>
              <g>
                <path class="cls-7" d="M456.35,160.27v107.98c0,.89,1.39.9,1.39,0v-107.98c0-.89-1.39-.9-1.39,0Z"/>
                <path class="cls-7" d="M458.96,164.03c0-.29.23-.52.52-.52s.52.23.52.52-.23.52-.52.52-.52-.23-.52-.52Z"/>
                <path class="cls-7" d="M458.96,178.38c0-.29.23-.52.52-.52s.52.23.52.52-.23.52-.52.52-.52-.23-.52-.52Z"/>
                <path class="cls-7" d="M458.96,192.74c0-.29.23-.52.52-.52s.52.23.52.52-.23.52-.52.52-.52-.23-.52-.52Z"/>
                <path class="cls-7" d="M458.96,207.09c0-.29.23-.52.52-.52s.52.23.52.52-.23.52-.52.52-.52-.23-.52-.52Z"/>
                <path class="cls-7" d="M458.96,221.44c0-.29.23-.52.52-.52s.52.23.52.52-.23.52-.52.52-.52-.23-.52-.52Z"/>
                <path class="cls-7" d="M458.96,235.79c0-.29.23-.52.52-.52s.52.23.52.52-.23.52-.52.52-.52-.23-.52-.52Z"/>
                <path class="cls-7" d="M458.96,250.14c0-.29.23-.52.52-.52s.52.23.52.52-.23.52-.52.52-.52-.23-.52-.52Z"/>
              </g>
              <circle class="cls-13" cx="462.78" cy="281.55" r="2.53"/>
              <path class="cls-13" d="M460.24,295.51c0-1.4,1.13-2.53,2.53-2.53s2.53,1.13,2.53,2.53-1.13,2.53-2.53,2.53-2.53-1.13-2.53-2.53Z"/>
              <path class="cls-13" d="M460.24,309.47c0-1.4,1.13-2.53,2.53-2.53s2.53,1.13,2.53,2.53-1.13,2.53-2.53,2.53-2.53-1.13-2.53-2.53Z"/>
              <path class="cls-13" d="M460.24,325.2c0-1.4,1.13-2.53,2.53-2.53s2.53,1.13,2.53,2.53-1.13,2.53-2.53,2.53-2.53-1.13-2.53-2.53Z"/>
            </g>
            <path class="cls-8" d="M470.55,156.66c-1.18-1.95-3.15-1.36-4.82-.55-1.98.97-3.94,1.97-5.89,2.99-.18.09-.33.2-.47.31-.09.05-.17.12-.26.18-.36-.58-.97-.98-1.67-1.11-.08-.02-.17-.03-.25-.03-.03,0-.06-.01-.1-.01-.02,0-.05,0-.07,0-.02,0-.05,0-.07,0-.03,0-.06.01-.1.01-.09,0-.17.02-.25.03-.7.13-1.31.53-1.67,1.11-.08-.06-.16-.13-.26-.18-.14-.11-.29-.22-.47-.31-1.95-1.02-3.91-2.02-5.89-2.99-1.66-.81-3.64-1.4-4.82.55-.93,1.54-.45,3.71-.16,5.37.3,1.72.74,4.3,2.4,5.23,1.84,1.03,3.9-.01,5.56-.89,1.29-.68,2.89-1.3,3.88-2.44.44.44,1.04.72,1.71.75.04,0,.09,0,.13,0,.04,0,.09,0,.13,0,.66-.03,1.27-.31,1.71-.75.99,1.14,2.59,1.76,3.88,2.44,1.66.87,3.73,1.91,5.56.89,1.66-.93,2.1-3.51,2.4-5.23.29-1.66.77-3.83-.16-5.37Z"/>
          </g>
          <g>
            <polygon class="cls-13" points="497.35 216.48 512.74 216.48 512.74 219.83 496.69 219.83 497.35 216.48"/>
            <g>
              <path class="cls-4" d="M497.35,216.48s4.34-9.97,9.5-14.63c0,0,4.28,4.1,5.89,14.63h-15.39Z"/>
              <path class="cls-15" d="M504.14,209.76c1.17-1.75,3.11-5.2,2.24-7.46-4.55,4.43-8.35,12.67-8.94,14,2.67-1.69,4.9-3.84,6.7-6.54Z"/>
              <path class="cls-15" d="M506.58,211.34c-1.25,1.93-2.78,3.66-4.52,5.15h4.18c.5-1.7.7-3.48.34-5.15Z"/>
            </g>
          </g>
        </g>
      </g>
    </g>
  </g>
</svg>