<?xml version="1.0" encoding="UTF-8"?>
<svg id="Layer_1" data-name="Layer 1" xmlns="http://www.w3.org/2000/svg" viewBox="0 0 612 792">
  <defs>
    <style>
      .cls-1 {
        fill: #010101;
        stroke-width: 0px;
      }
    </style>
  </defs>
  <g id="_481_university_bank_campus_court" data-name="481, university, bank, campus, court">
    <g>
      <path class="cls-1" d="M403.46,375.91c-8.8,0-15.56,6.77-15.56,15.56v102.19h31.81v-102.19c0-8.8-7.45-15.56-16.25-15.56Z"/>
      <path class="cls-1" d="M454.89,312.29h23.01l-169.87-85.95c-31.81,16.92-60.24,31.14-87.98,45.35-12.19,6.09-24.37,12.18-36.55,18.27h43.32c2.03,0,4.06,2.03,4.06,4.06s-2.03,4.06-4.06,4.06h-55.5c-.68,0-1.35,0-2.03-.68-9.48,4.74-19.63,10.15-29.78,15.57h23.69l291.69-.68h0ZM309.38,249.35c12.86,0,23.69,10.83,23.69,23.69s-10.83,23.69-23.69,23.69-23.69-10.83-23.69-23.69,10.15-23.69,23.69-23.69Z"/>
      <path class="cls-1" d="M309.38,375.91c-8.8,0-15.56,6.77-15.56,15.56v102.19h31.81v-102.19c-.67-8.8-7.44-15.56-16.25-15.56Z"/>
      <polygon class="cls-1" points="450.83 320.42 167.26 320.42 166.58 344.1 450.83 344.1 450.83 320.42"/>
      <path class="cls-1" d="M309.38,288.61c8.8,0,15.57-6.77,15.57-15.56s-6.77-15.56-15.57-15.56-15.56,6.77-15.56,15.56c-.67,8.8,6.77,15.56,15.56,15.56Z"/>
      <path class="cls-1" d="M214.63,375.91c-8.8,0-15.56,6.77-15.56,15.56v102.19h31.81v-102.19c-.67-8.8-7.44-15.56-16.25-15.56Z"/>
      <polygon class="cls-1" points="183.5 501.79 183.5 525.48 434.59 525.48 434.59 501.79 423.76 501.79 383.83 501.79 329.01 501.79 289.76 501.79 234.26 501.79 195.01 501.79 183.5 501.79"/>
      <path class="cls-1" d="M491.44,556.62h-32.48v-23.69H159.14v23.69h-38.58c-2.03,0-4.06,2.03-4.06,4.06s2.04,4.06,4.06,4.06h370.88c2.03,0,4.06-2.03,4.06-4.06s-2.03-4.06-4.06-4.06Z"/>
    </g>
  </g>
</svg>