<?xml version="1.0" encoding="UTF-8"?>
<svg id="BACKGROUND_2" data-name="BACKGROUND 2" xmlns="http://www.w3.org/2000/svg" viewBox="0 0 500 500">
  <defs>
    <style>
      .cls-1 {
        fill: #8c4541;
      }

      .cls-1, .cls-2, .cls-3, .cls-4 {
        stroke-width: 0px;
      }

      .cls-2 {
        fill: #c2a469;
      }

      .cls-3 {
        fill: #453631;
      }

      .cls-4 {
        fill: #66322f;
      }
    </style>
  </defs>
  <g>
    <path class="cls-3" d="M192.4,86.68s14.66,20.95-20.95,9.77c-22.91-7.19-56.23-15.53-77.07-20.57-12.27-2.97-25.22-.96-36.01,5.6l-30.04,18.25s11.17-24.23,51.67-38.89c40.49-14.66,112.41,25.83,112.41,25.83Z"/>
    <path class="cls-3" d="M307.6,86.68s-14.66,20.95,20.95,9.77c22.91-7.19,56.23-15.53,77.07-20.57,12.27-2.97,25.22-.96,36.01,5.6l30.04,18.25s-11.17-24.23-51.67-38.89c-40.49-14.66-112.41,25.83-112.41,25.83Z"/>
  </g>
  <g>
    <path class="cls-3" d="M51.37,143.23s16.76,20.25,0,25.83c0,0,48.17,31.42,131.96-5.59,0,0-10.47-7.8-48.17-1.11-37.7,6.69-62.14-4.48-83.78-19.14Z"/>
    <path class="cls-3" d="M448.63,143.23s-16.76,20.25,0,25.83c0,0-48.17,31.42-131.96-5.59,0,0,10.47-7.8,48.17-1.11,37.7,6.69,62.14-4.48,83.78-19.14Z"/>
  </g>
  <g>
    <path class="cls-2" d="M235.69,309.4s-2.79-14.66-14.66-16.06c-11.87-1.4-13.27,4.19-11.87,8.03,1.4,3.84,26.53,8.03,26.53,8.03Z"/>
    <path class="cls-2" d="M202.87,263.32c-8.06,10.35-15.68,26.61-5.5,37.99,3.11,3.45,7.11,6.03,11.34,8.09-3.28-1.33-6.51-2.9-9.26-5.17-14.32-10.99-6.84-29.9,3.42-40.91h0Z"/>
    <path class="cls-2" d="M264.31,309.4s2.79-14.66,14.66-16.06c11.87-1.4,13.27,4.19,11.87,8.03-1.4,3.84-26.53,8.03-26.53,8.03Z"/>
    <path class="cls-2" d="M297.13,263.32c10.26,11.01,17.73,29.92,3.42,40.91-2.75,2.27-5.98,3.84-9.26,5.17,4.23-2.05,8.24-4.64,11.34-8.09,10.19-11.39,2.57-27.64-5.5-37.99h0Z"/>
  </g>
  <g>
    <path class="cls-1" d="M270.75,369.44s-18.31,4.19-22.5,4.19-22.5-4.19-22.5-4.19c-22.5-4.19-74.55,32.81-74.55,32.81,40.49,61.44,97.05,46.78,97.05,46.78,0,0,56.55,14.66,97.05-46.78,0,0-52.05-37-74.55-32.81Z"/>
    <path class="cls-4" d="M163.78,406.65s97.74,14.35,168.96,0"/>
  </g>
</svg>