<?xml version="1.0" encoding="UTF-8"?>
<svg xmlns="http://www.w3.org/2000/svg" xmlns:xlink="http://www.w3.org/1999/xlink" viewBox="0 0 612 792">
  <defs>
    <style>
      .cls-1 {
        fill: url(#linear-gradient);
      }

      .cls-1, .cls-2, .cls-3, .cls-4, .cls-5, .cls-6, .cls-7, .cls-8, .cls-9, .cls-10, .cls-11, .cls-12 {
        stroke: #2a2d2d;
        stroke-linecap: round;
        stroke-linejoin: round;
      }

      .cls-2, .cls-3 {
        fill: none;
      }

      .cls-3 {
        stroke-width: 2px;
      }

      .cls-13 {
        isolation: isolate;
      }

      .cls-4 {
        fill: url(#linear-gradient-9);
      }

      .cls-5 {
        fill: url(#linear-gradient-8);
      }

      .cls-6 {
        fill: url(#linear-gradient-5);
      }

      .cls-14 {
        fill: #d3d3d3;
        mix-blend-mode: multiply;
        stroke-width: 0px;
      }

      .cls-7 {
        fill: url(#linear-gradient-2);
      }

      .cls-8 {
        fill: #2a2d2d;
      }

      .cls-9 {
        fill: url(#linear-gradient-6);
      }

      .cls-10 {
        fill: url(#linear-gradient-7);
      }

      .cls-11 {
        fill: url(#linear-gradient-3);
      }

      .cls-12 {
        fill: url(#linear-gradient-4);
      }
    </style>
    <linearGradient id="linear-gradient" x1="1125.44" y1="321.56" x2="1161.96" y2="321.56" gradientTransform="translate(1480.3 73.11) rotate(179.96) scale(1 -1)" gradientUnits="userSpaceOnUse">
      <stop offset=".07" stop-color="#373f41"/>
      <stop offset=".14" stop-color="#353c3e"/>
      <stop offset=".58" stop-color="#2c3031"/>
      <stop offset="1" stop-color="#2a2d2d"/>
    </linearGradient>
    <linearGradient id="linear-gradient-2" x1="1185.99" y1="303.09" x2="1231.6" y2="303.09" xlink:href="#linear-gradient"/>
    <linearGradient id="linear-gradient-3" x1="-377.66" y1="113.09" x2="-142.14" y2="113.09" gradientTransform="translate(490.59 291.38) rotate(44.96)" gradientUnits="userSpaceOnUse">
      <stop offset=".07" stop-color="#616b7a"/>
      <stop offset=".24" stop-color="#565d67"/>
      <stop offset=".51" stop-color="#494d52"/>
      <stop offset=".76" stop-color="#424445"/>
      <stop offset="1" stop-color="#404141"/>
    </linearGradient>
    <linearGradient id="linear-gradient-4" x1="-363.68" y1="110.78" x2="-157.22" y2="110.78" gradientTransform="translate(486.58 74.48) rotate(-.04)" gradientUnits="userSpaceOnUse">
      <stop offset=".07" stop-color="#dbe0e1"/>
      <stop offset="1" stop-color="#b4b7b9"/>
    </linearGradient>
    <linearGradient id="linear-gradient-5" x1="1099.75" y1="148.62" x2="1206.61" y2="231.04" gradientTransform="translate(1480.3 73.11) rotate(179.96) scale(1 -1)" xlink:href="#linear-gradient-4"/>
    <linearGradient id="linear-gradient-6" x1="-136.73" y1="277.45" x2="-84.44" y2="277.45" gradientTransform="translate(486.58 74.48) rotate(-.04)" xlink:href="#linear-gradient"/>
    <linearGradient id="linear-gradient-7" x1="1124.56" y1="394.88" x2="1180.3" y2="394.88" gradientTransform="translate(-856.06 863.72) scale(1 -1)" gradientUnits="userSpaceOnUse">
      <stop offset=".07" stop-color="#fdb814"/>
      <stop offset=".19" stop-color="#faa21d"/>
      <stop offset=".4" stop-color="#f6852a"/>
      <stop offset=".61" stop-color="#f37033"/>
      <stop offset=".81" stop-color="#f16339"/>
      <stop offset="1" stop-color="#f15f3b"/>
    </linearGradient>
    <linearGradient id="linear-gradient-8" x1="1148.28" y1="511.4" x2="1188.3" y2="511.4" gradientTransform="translate(-855.97 1096.75) scale(1 -1)" xlink:href="#linear-gradient-3"/>
    <linearGradient id="linear-gradient-9" x1="481.31" y1="664.03" x2="182.98" y2="664.03" gradientTransform="matrix(1,0,0,1,0,0)" xlink:href="#linear-gradient-3"/>
  </defs>
  <g class="cls-13">
    <g id="Layer_1" data-name="Layer 1">
      <g>
        <g>
          <polygon class="cls-1" points="308.2 435.05 330.22 435.04 344.66 356.02 308.14 356.05 308.2 435.05"/>
          <polygon class="cls-7" points="262.49 319.14 292.14 435.07 308.2 435.05 308.13 352.07 262.49 319.14"/>
          <circle class="cls-11" cx="226.76" cy="187.76" r="117.76" transform="translate(-66.35 215.34) rotate(-45)"/>
          <path class="cls-12" d="M135.78,214.59c-.05-65.04,52.63-117.8,117.67-117.85,29.26-.02,55.34,15.64,75.95,33.29-21.62-25.16-52.97-46.09-88.75-46.07-65.04.05-117.72,52.82-117.67,117.85.03,35.77,15.18,63.59,40.38,85.17-17.68-20.58-27.56-43.13-27.58-72.4Z"/>
          <path class="cls-14" d="M266.28,130.08c27.37-.02,52.1,10.77,70.56,28.18,2.52,9.4,4,19.23,4.01,29.42.05,62.91-51.09,114.12-113.99,114.17-15.71.01-30.68-3.17-44.32-8.93-12.05-16.85-19.2-37.43-19.22-59.72-.04-56.91,46.05-103.08,102.96-103.12Z"/>
          <path class="cls-8" d="M208.61,259.92c-2.28-6.74-3.58-13.93-3.58-21.44-.03-37.04,29.98-67.09,67.02-67.12,12.14,0,23.49,3.25,33.32,8.88.05.03.11.04.16.07.45.25.95.62,1.42.89,1.04.63,2.08,1.25,3.08,1.93,30.34,20.16,76.14,83.02,94.56,119.12.57,1.01,1.09,2.05,1.6,3.1,0,.01.01.03.02.04h0c3.13,6.55,4.94,13.85,4.94,21.59.02,27.78-22.48,50.32-50.26,50.34-11.02,0-21.18-3.57-29.47-9.57-30.67-15.95-67.39-47.92-87.86-64.25-20.47-16.34-28.81-25.57-34.91-43.52,0,0-.03-.04-.03-.04v-.02Z"/>
          <path class="cls-6" d="M208.61,259.92c-2.28-6.74-3.58-13.93-3.58-21.44-.03-37.04,29.98-67.09,67.02-67.12,12.14,0,23.49,3.25,33.32,8.88.05.03.11.04.16.07.45.25.95.62,1.42.89,1.04.63,2.08,1.25,3.08,1.93,30.34,20.16,76.14,83.02,94.56,119.12.57,1.01,1.09,2.05,1.6,3.1,0,.01.01.03.02.04h0c3.13,6.55,4.94,13.85,4.94,21.59.02,27.78-22.48,50.32-50.26,50.34-11.02,0-21.18-3.57-29.47-9.57-30.67-15.95-67.39-47.92-87.86-64.25-20.47-16.34-28.81-25.57-34.91-43.52,0,0-.03-.04-.03-.04v-.02Z"/>
          <path class="cls-2" d="M331.4,367.75c-24.7-15.1-2.55-62.31,31.12-62.33"/>
          <path class="cls-9" d="M402.34,351.99c-.01-14.44-11.73-26.14-26.17-26.13-14.44.01-26.14,11.73-26.13,26.17.01,14.44,11.73,26.14,26.17,26.13,14.44-.01,26.14-11.73,26.13-26.17Z"/>
          <path class="cls-8" d="M400.67,361.16c0-9.64-7.83-17.45-17.47-17.44-9.64,0-17.45,7.83-17.44,17.47,0,9.64,7.83,17.45,17.47,17.44,9.64,0,17.45-7.83,17.44-17.47Z"/>
          <path class="cls-3" d="M383.21,361.18s33.1,48.5,39.98,118.41c6.88,69.91,21.44,153.16,101.04,188.34"/>
          <rect class="cls-10" x="284.4" y="435.05" width="55.75" height="67.64" transform="translate(624.91 937.49) rotate(179.96)"/>
          <rect class="cls-5" x="292.35" y="502.69" width="40.02" height="165.4" transform="translate(625.19 1170.53) rotate(179.95)"/>
        </g>
        <path class="cls-4" d="M347.83,637.07h-71.42c-29.66,0-53.93,24.27-53.93,53.93h179.28c0-29.66-24.27-53.93-53.93-53.93Z"/>
      </g>
    </g>
  </g>
</svg>