<?xml version="1.0" encoding="UTF-8"?>
<svg id="Objects" xmlns="http://www.w3.org/2000/svg" viewBox="0 0 799.92 799.92">
  <defs>
    <style>
      .cls-1 {
        fill: #fff2d4;
      }

      .cls-1, .cls-2 {
        fill-rule: evenodd;
        stroke-width: 0px;
      }

      .cls-2 {
        fill: #524322;
      }
    </style>
  </defs>
  <polygon class="cls-2" points="368.72 244.07 343.74 244.07 340.52 308.83 365.5 308.83 368.72 244.07"/>
  <path class="cls-2" d="M363.4,243.49s-4.7-12.41-5.94-23.04c-1.24-10.63-14.3-33.81,6.17-44.4,20.47-10.59,35.82-15.86,59.7-8.77,23.87,7.09,24.35,21.27,26.8,31.31,2.46,10.04,7.33,18.91,7.33,18.91,0,0,5.03,5.91,3.73,20.09-1.3,14.18-5.43,14.18-5.43,14.18,0,0-2.19,20.09-.06,24.81,2.13,4.73,3.25,5.91,3.25,5.91,0,0,8.45-3.54,13.44,2.95,4.99,6.5,8.01,17.13,8.01,17.13,0,0,31.43,9.45,45.85,16.54,14.42,7.09,17.91,20.09,24.44,43.13,6.54,23.04,6.81,83.93,6.7,98.13-.12,14.21-6,25.45-14.91,37.88-8.91,12.43-9.41,10.65-14.32,14.2-4.91,3.55-9.03,2.96-9.03,2.96,0,0,4.65,13.61,4.6,26.63-.06,13.02-2.3,22.49-14.52,30.19-12.22,7.69-149.67,32.55-148.93,5.91.74-26.63,5-98.83,1.33-120.14-3.67-21.31-9.6-45.44-10.23-56.22-.62-10.79-2.3-15.12-2.3-15.12,0,0-3.58.68-10.97,3.58v-80.62c1.59.21,2.85.3,2.85.3l1.05-2.74c-1.46-.6-2.75-1.03-3.89-1.32v-13.28c4.08.31,8.13.61,8.75-.66,0,0-6.53-1.37-8.75-2.5v-15.17c5.26,1.29,9.44,4.01,9.44,4.01,0,0,.25-5.01.87-8.43.63-3.42.32-6.38.32-6.38,0,0-1.03,2.28-5,4.33-2.46,1.27-3.95.71-5.63-.28v-13.33c8.19,1.8,13.84,5.58,13.84,5.58,0,0,5.8-9.47,11.46-16.25ZM338.1,390.24c-7.37,2.9-18.54,8.01-33.75,16.86-30.47,17.75-66.57,29.59-72.88,13.61-6.3-15.98,4.49-42.61,16.8-52.08,12.3-9.47,25.14-29.59,33.52-31.37,8.37-1.77,10.88-4.73,10.88-4.73,0,0,11.18-10.65,13.7-13.61,2.51-2.96-5.27-13.02-2.02-18.94,3.25-5.92-1.69-13.61,4.38-16.57,6.06-2.96,6.39-9.47,4.43-17.76-1.95-8.28,4.17-12.43,16.6-12.43,2.96,0,5.77.37,8.33.93v13.33c-1.04-.61-2.15-1.39-3.6-2-3.79-1.6-7.11.91-7.11.91l1.44,7.75c3.06-.9,6.34-.63,9.27.09v15.17h0c-2.22-1.14-6.14-.23-9.61.68-3.46.91-1.73,2.74,2.85,2.28,1.74-.17,4.25.01,6.76.2v13.28c-4.07-1.05-6.1-.28-6.36,1.32-.21,1.3,3.58,2.06,6.36,2.43v80.62Z"/>
  <path class="cls-1" d="M394.59,231.91c-24.84-.71-45.98,18.82-47.21,43.62-1.24,24.81,17.9,45.49,42.74,46.2,24.84.72,45.98-18.81,47.21-43.62,1.24-24.8-17.9-45.49-42.74-46.2Z"/>
  <path class="cls-2" d="M393.82,247.44c-16.25-.47-30.08,12.31-30.9,28.54-.81,16.23,11.71,29.76,27.97,30.23,16.25.46,30.08-12.31,30.89-28.54.81-16.23-11.71-29.76-27.96-30.23Z"/>
  <path class="cls-2" d="M305.64,312.24c-3.52,14.33-8.37,37.54-4.83,52.83,4.02,17.35,11.52,30.41,11.61,39.64.08,9.23,7.66,20.63,11.35,33.67,3.7,13.03,13.15,52.13,18.64,61.9,5.49,9.77,29.26,45.07,55.83,34.75,26.58-10.32,45.9-49.42,53.36-79.28,7.46-29.86,1.93-93.4-1.31-115.66-3.23-22.26-4.57-28.24-.36-36.38,4.21-8.15-7.39-36.93-11.31-45.61-3.91-8.69-7.79-7.06-7.79-7.06,0,0,4.29,11.95,7.53,23.35,3.23,11.4,3.75,22.81,3.35,30.95-.41,8.15,3.08,25.52,1.7,42.35-1.38,16.83-1.1,76.57-6.9,105.89-5.8,29.32-26.19,63.64-40.84,67.88-14.65,4.23-36.92,2.12-49.42-26.58-12.5-28.7-5.27-72.17-16.18-81.87-10.91-9.71-16.35-20.07-19.25-46.66-2.61-23.95-6.01-30.07-4.43-51.74-.13-.77-.51-1.89-.74-2.37Z"/>
  <path class="cls-1" d="M411.52,262.04l-10.78,8.37c1.4,1.85,2.19,4.19,2.06,6.71-.13,2.62-1.22,4.99-2.91,6.78l7.36,11.35c5.22-4.24,8.69-10.58,9.05-17.74.29-5.82-1.53-11.22-4.78-15.47Z"/>
  <path class="cls-1" d="M373.51,262.04l10.78,8.37c-1.4,1.85-2.19,4.19-2.06,6.71.14,2.62,1.22,4.99,2.91,6.78l-7.36,11.35c-5.22-4.24-8.69-10.58-9.05-17.74-.29-5.82,1.53-11.22,4.78-15.47Z"/>
  <path class="cls-1" d="M401.14,434.77c37.3-27.63,58.02-104.99,60.78-119.26-11.05,9.67-66.77,34.08-87.95,23.95.92,17.5,3.22,60.32,27.17,95.32Z"/>
  <path class="cls-2" d="M439.36,314.12c-.92,9.21-2.3,27.63-2.3,27.63,0,0,7.37,4.6,16.12,15.19,8.75,10.59-25.32,64.47-25.32,64.47,0,0-5.99-3.22-6.91-11.97-.92-8.75-23.02-26.25-23.02-26.25l11.05-10.13s-4.61-4.14-11.52-5.53c-6.9-1.38-20.72-12.43-31.31-21.64-10.59-9.21-7.37-21.64-7.37-21.64,0,0,38.22,3.22,53.88,0,15.66-3.22,12.43-1.84,26.7-10.13Z"/>
</svg>